<svg id="visual" viewBox="0 0 960 540" width="960" height="540" xmlns="http://www.w3.org/2000/svg" xmlns:xlink="http://www.w3.org/1999/xlink" version="1.1"><rect x="0" y="0" width="960" height="540" fill="#ffffff"></rect><path d="M0 435L14.5 431.3C29 427.7 58 420.3 87.2 423.7C116.3 427 145.7 441 174.8 439.5C204 438 233 421 262 408.8C291 396.7 320 389.3 349 400.3C378 411.3 407 440.7 436.2 449.7C465.3 458.7 494.7 447.3 523.8 439.5C553 431.7 582 427.3 611 423C640 418.7 669 414.3 698 407.5C727 400.7 756 391.3 785.2 398.5C814.3 405.7 843.7 429.3 872.8 436.3C902 443.3 931 433.7 945.5 428.8L960 424L960 541L945.5 541C931 541 902 541 872.8 541C843.7 541 814.3 541 785.2 541C756 541 727 541 698 541C669 541 640 541 611 541C582 541 553 541 523.8 541C494.7 541 465.3 541 436.2 541C407 541 378 541 349 541C320 541 291 541 262 541C233 541 204 541 174.8 541C145.7 541 116.3 541 87.2 541C58 541 29 541 14.5 541L0 541Z" fill="#0f1516" stroke-linecap="round" stroke-linejoin="miter"></path></svg>