<svg id="visual" viewBox="0 0 960 540" width="960" height="540" xmlns="http://www.w3.org/2000/svg" xmlns:xlink="http://www.w3.org/1999/xlink" version="1.1"><rect x="0" y="0" width="960" height="540" fill="#f9f9f9"></rect><path d="M0 428L17.8 424C35.7 420 71.3 412 106.8 412.3C142.3 412.7 177.7 421.3 213.2 424.3C248.7 427.3 284.3 424.7 320 419.5C355.7 414.3 391.3 406.7 426.8 402.3C462.3 398 497.7 397 533.2 398.8C568.7 400.7 604.3 405.3 640 400.7C675.7 396 711.3 382 746.8 379.8C782.3 377.7 817.7 387.3 853.2 396.7C888.7 406 924.3 415 942.2 419.5L960 424L960 541L942.2 541C924.3 541 888.7 541 853.2 541C817.7 541 782.3 541 746.8 541C711.3 541 675.7 541 640 541C604.3 541 568.7 541 533.2 541C497.7 541 462.3 541 426.8 541C391.3 541 355.7 541 320 541C284.3 541 248.7 541 213.2 541C177.7 541 142.3 541 106.8 541C71.3 541 35.7 541 17.8 541L0 541Z" fill="#7f8c94"></path><path d="M0 418L17.8 410.5C35.7 403 71.3 388 106.8 381.3C142.3 374.7 177.7 376.3 213.2 381.5C248.7 386.7 284.3 395.3 320 407.5C355.7 419.7 391.3 435.3 426.8 435.8C462.3 436.3 497.7 421.7 533.2 419C568.7 416.3 604.3 425.7 640 429.5C675.7 433.3 711.3 431.7 746.8 422.8C782.3 414 817.7 398 853.2 393.5C888.7 389 924.3 396 942.2 399.5L960 403L960 541L942.2 541C924.3 541 888.7 541 853.2 541C817.7 541 782.3 541 746.8 541C711.3 541 675.7 541 640 541C604.3 541 568.7 541 533.2 541C497.7 541 462.3 541 426.8 541C391.3 541 355.7 541 320 541C284.3 541 248.7 541 213.2 541C177.7 541 142.3 541 106.8 541C71.3 541 35.7 541 17.8 541L0 541Z" fill="#667278"></path><path d="M0 459L17.8 455.3C35.7 451.7 71.3 444.3 106.8 435C142.3 425.7 177.7 414.3 213.2 419.8C248.7 425.3 284.3 447.7 320 457.2C355.7 466.7 391.3 463.3 426.8 454.5C462.3 445.7 497.7 431.3 533.2 432.3C568.7 433.3 604.3 449.7 640 447C675.7 444.3 711.3 422.7 746.8 424.2C782.3 425.7 817.7 450.3 853.2 462.7C888.7 475 924.3 475 942.2 475L960 475L960 541L942.2 541C924.3 541 888.7 541 853.2 541C817.7 541 782.3 541 746.8 541C711.3 541 675.7 541 640 541C604.3 541 568.7 541 533.2 541C497.7 541 462.3 541 426.8 541C391.3 541 355.7 541 320 541C284.3 541 248.7 541 213.2 541C177.7 541 142.3 541 106.8 541C71.3 541 35.7 541 17.8 541L0 541Z" fill="#4e595d"></path><path d="M0 443L17.8 447.2C35.7 451.3 71.3 459.7 106.8 465.8C142.3 472 177.7 476 213.2 480.2C248.7 484.3 284.3 488.7 320 485.2C355.7 481.7 391.3 470.3 426.8 462.3C462.3 454.3 497.7 449.7 533.2 445.3C568.7 441 604.3 437 640 438.2C675.7 439.3 711.3 445.7 746.8 448.8C782.3 452 817.7 452 853.2 450.3C888.7 448.7 924.3 445.3 942.2 443.7L960 442L960 541L942.2 541C924.3 541 888.7 541 853.2 541C817.7 541 782.3 541 746.8 541C711.3 541 675.7 541 640 541C604.3 541 568.7 541 533.2 541C497.7 541 462.3 541 426.8 541C391.3 541 355.7 541 320 541C284.3 541 248.7 541 213.2 541C177.7 541 142.3 541 106.8 541C71.3 541 35.7 541 17.8 541L0 541Z" fill="#384144"></path><path d="M0 473L17.8 475.7C35.7 478.3 71.3 483.7 106.8 483.8C142.3 484 177.7 479 213.2 475C248.7 471 284.3 468 320 468C355.7 468 391.3 471 426.8 471.5C462.3 472 497.7 470 533.2 467.8C568.7 465.7 604.3 463.3 640 468C675.7 472.7 711.3 484.3 746.8 491.3C782.3 498.3 817.7 500.7 853.2 500.2C888.7 499.7 924.3 496.3 942.2 494.7L960 493L960 541L942.2 541C924.3 541 888.7 541 853.2 541C817.7 541 782.3 541 746.8 541C711.3 541 675.7 541 640 541C604.3 541 568.7 541 533.2 541C497.7 541 462.3 541 426.8 541C391.3 541 355.7 541 320 541C284.3 541 248.7 541 213.2 541C177.7 541 142.3 541 106.8 541C71.3 541 35.7 541 17.8 541L0 541Z" fill="#232a2c"></path><path d="M0 518L17.8 516.2C35.7 514.3 71.3 510.7 106.8 512.3C142.3 514 177.7 521 213.2 520.2C248.7 519.3 284.3 510.7 320 507.3C355.7 504 391.3 506 426.8 509.5C462.3 513 497.7 518 533.2 516.8C568.7 515.7 604.3 508.3 640 506C675.7 503.7 711.3 506.3 746.8 508.7C782.3 511 817.7 513 853.2 515.7C888.7 518.3 924.3 521.7 942.2 523.3L960 525L960 541L942.2 541C924.3 541 888.7 541 853.2 541C817.7 541 782.3 541 746.8 541C711.3 541 675.7 541 640 541C604.3 541 568.7 541 533.2 541C497.7 541 462.3 541 426.8 541C391.3 541 355.7 541 320 541C284.3 541 248.7 541 213.2 541C177.7 541 142.3 541 106.8 541C71.3 541 35.7 541 17.8 541L0 541Z" fill="#0f1516"></path></svg>