<svg id="visual" viewBox="0 0 960 540" width="960" height="540" xmlns="http://www.w3.org/2000/svg" xmlns:xlink="http://www.w3.org/1999/xlink" version="1.1"><rect x="0" y="0" width="960" height="540" fill="#f9f9f9"></rect><path d="M0 362L17.8 368C35.7 374 71.3 386 106.8 386.2C142.3 386.3 177.7 374.7 213.2 378.3C248.7 382 284.3 401 320 398C355.7 395 391.3 370 426.8 365C462.3 360 497.7 375 533.2 383.8C568.7 392.7 604.3 395.3 640 392.8C675.7 390.3 711.3 382.7 746.8 383.2C782.3 383.7 817.7 392.3 853.2 396.8C888.7 401.3 924.3 401.7 942.2 401.8L960 402L960 541L942.2 541C924.3 541 888.7 541 853.2 541C817.7 541 782.3 541 746.8 541C711.3 541 675.7 541 640 541C604.3 541 568.7 541 533.2 541C497.7 541 462.3 541 426.8 541C391.3 541 355.7 541 320 541C284.3 541 248.7 541 213.2 541C177.7 541 142.3 541 106.8 541C71.3 541 35.7 541 17.8 541L0 541Z" fill="#7f8c94"></path><path d="M0 378L17.8 385.5C35.7 393 71.3 408 106.8 410.5C142.3 413 177.7 403 213.2 402.2C248.7 401.3 284.3 409.7 320 417C355.7 424.3 391.3 430.7 426.8 436.7C462.3 442.7 497.7 448.3 533.2 438.8C568.7 429.3 604.3 404.7 640 401.7C675.7 398.7 711.3 417.3 746.8 420.3C782.3 423.3 817.7 410.7 853.2 402.2C888.7 393.7 924.3 389.3 942.2 387.2L960 385L960 541L942.2 541C924.3 541 888.7 541 853.2 541C817.7 541 782.3 541 746.8 541C711.3 541 675.7 541 640 541C604.3 541 568.7 541 533.2 541C497.7 541 462.3 541 426.8 541C391.3 541 355.7 541 320 541C284.3 541 248.7 541 213.2 541C177.7 541 142.3 541 106.8 541C71.3 541 35.7 541 17.8 541L0 541Z" fill="#667278"></path><path d="M0 463L17.8 463.3C35.7 463.7 71.3 464.3 106.8 461.3C142.3 458.3 177.7 451.7 213.2 449C248.7 446.3 284.3 447.7 320 443.2C355.7 438.7 391.3 428.3 426.8 427.7C462.3 427 497.7 436 533.2 436.8C568.7 437.7 604.3 430.3 640 432.8C675.7 435.3 711.3 447.7 746.8 446.5C782.3 445.3 817.7 430.7 853.2 431C888.7 431.3 924.3 446.7 942.2 454.3L960 462L960 541L942.2 541C924.3 541 888.7 541 853.2 541C817.7 541 782.3 541 746.8 541C711.3 541 675.7 541 640 541C604.3 541 568.7 541 533.2 541C497.7 541 462.3 541 426.8 541C391.3 541 355.7 541 320 541C284.3 541 248.7 541 213.2 541C177.7 541 142.3 541 106.8 541C71.3 541 35.7 541 17.8 541L0 541Z" fill="#4e595d"></path><path d="M0 471L17.8 469.2C35.7 467.3 71.3 463.7 106.8 464.3C142.3 465 177.7 470 213.2 475C248.7 480 284.3 485 320 485.8C355.7 486.7 391.3 483.3 426.8 483.5C462.3 483.7 497.7 487.3 533.2 482.7C568.7 478 604.3 465 640 460.7C675.7 456.3 711.3 460.7 746.8 459.8C782.3 459 817.7 453 853.2 450.8C888.7 448.7 924.3 450.3 942.2 451.2L960 452L960 541L942.2 541C924.3 541 888.7 541 853.2 541C817.7 541 782.3 541 746.8 541C711.3 541 675.7 541 640 541C604.3 541 568.7 541 533.2 541C497.7 541 462.3 541 426.8 541C391.3 541 355.7 541 320 541C284.3 541 248.7 541 213.2 541C177.7 541 142.3 541 106.8 541C71.3 541 35.7 541 17.8 541L0 541Z" fill="#384144"></path><path d="M0 481L17.8 482.3C35.7 483.7 71.3 486.3 106.8 485.5C142.3 484.7 177.7 480.3 213.2 475.5C248.7 470.7 284.3 465.3 320 464C355.7 462.7 391.3 465.3 426.8 472.3C462.3 479.3 497.7 490.7 533.2 496.7C568.7 502.7 604.3 503.3 640 504.8C675.7 506.3 711.3 508.7 746.8 506.7C782.3 504.7 817.7 498.3 853.2 494C888.7 489.7 924.3 487.3 942.2 486.2L960 485L960 541L942.2 541C924.3 541 888.7 541 853.2 541C817.7 541 782.3 541 746.8 541C711.3 541 675.7 541 640 541C604.3 541 568.7 541 533.2 541C497.7 541 462.3 541 426.8 541C391.3 541 355.7 541 320 541C284.3 541 248.7 541 213.2 541C177.7 541 142.3 541 106.8 541C71.3 541 35.7 541 17.8 541L0 541Z" fill="#232a2c"></path><path d="M0 492L17.8 497.5C35.7 503 71.3 514 106.8 516.5C142.3 519 177.7 513 213.2 512.8C248.7 512.7 284.3 518.3 320 519.7C355.7 521 391.3 518 426.8 514.2C462.3 510.3 497.7 505.7 533.2 504.8C568.7 504 604.3 507 640 508.3C675.7 509.7 711.3 509.3 746.8 510.5C782.3 511.7 817.7 514.3 853.2 510.8C888.7 507.3 924.3 497.7 942.2 492.8L960 488L960 541L942.2 541C924.3 541 888.7 541 853.2 541C817.7 541 782.3 541 746.8 541C711.3 541 675.7 541 640 541C604.3 541 568.7 541 533.2 541C497.7 541 462.3 541 426.8 541C391.3 541 355.7 541 320 541C284.3 541 248.7 541 213.2 541C177.7 541 142.3 541 106.8 541C71.3 541 35.7 541 17.8 541L0 541Z" fill="#0f1516"></path></svg>